[Header]
FileType HTR
DataType HTRS
FileVersion 1
NumSegments 64
NumFrames 4
DataFrameRate 24
EulerRotationOrder ZYX
CalibrationUnits mm
RotationUnits Degrees
GlobalAxisofGravity Y
BoneLengthAxis Y
ScaleFactor 1.0
[SegmentNames&Hierarchy]
Hips	GLOBAL
Spine	Hips
Spine1	Spine
Spine2	Spine1
Neck	Spine2
Head	Neck
LeftEye	Head
RightEye	Head
LeftShoulder	Spine2
LeftArm	LeftShoulder
LeftForeArm	LeftArm
LeftHand	LeftForeArm
LeftHandThumb1	LeftHand
LeftHandThumb2	LeftHandThumb1
LeftHandThumb3	LeftHandThumb2
LeftHandThumb4	LeftHandThumb3
LeftHandIndex1	LeftHand
LeftHandIndex2	LeftHandIndex1
LeftHandIndex3	LeftHandIndex2
LeftHandIndex4	LeftHandIndex3
LeftHandMiddle1	LeftHand
LeftHandMiddle2	LeftHandMiddle1
LeftHandMiddle3	LeftHandMiddle2
LeftHandMiddle4	LeftHandMiddle3
LeftHandRing1	LeftHand
LeftHandRing2	LeftHandRing1
LeftHandRing3	LeftHandRing2
LeftHandRing4	LeftHandRing3
LeftHandPinky1	LeftHand
LeftHandPinky2	LeftHandPinky1
LeftHandPinky3	LeftHandPinky2
LeftHandPinky4	LeftHandPinky3
RightShoulder	Spine2
RightArm	RightShoulder
RightForeArm	RightArm
RightHand	RightForeArm
RightHandPinky1	RightHand
RightHandPinky2	RightHandPinky1
RightHandPinky3	RightHandPinky2
RightHandPinky4	RightHandPinky3
RightHandRing1	RightHand
RightHandRing2	RightHandRing1
RightHandRing3	RightHandRing2
RightHandRing4	RightHandRing3
RightHandMiddle1	RightHand
RightHandMiddle2	RightHandMiddle1
RightHandMiddle3	RightHandMiddle2
RightHandMiddle4	RightHandMiddle3
RightHandIndex1	RightHand
RightHandIndex2	RightHandIndex1
RightHandIndex3	RightHandIndex2
RightHandIndex4	RightHandIndex3
RightHandThumb1	RightHand
RightHandThumb2	RightHandThumb1
RightHandThumb3	RightHandThumb2
RightHandThumb4	RightHandThumb3
LeftUpLeg	Hips
LeftLeg	LeftUpLeg
LeftFoot	LeftLeg
LeftToeBase	LeftFoot
RightUpLeg	Hips
RightLeg	RightUpLeg
RightFoot	RightLeg
RightToeBase	RightFoot
[BasePosition]
Hips	0	0	0	0	0	0	1
Spine	0	0	0	0	0	0	1
Spine1	0	0	0	0	0	0	1
Spine2	0	0	0	0	0	0	1
Neck	0	0	0	0	0	0	1
Head	0	0	0	0	0	0	1
LeftEye	0	0	0	0	0	0	1
RightEye	0	0	0	0	0	0	1
LeftShoulder	0	0	0	0	0	0	1
LeftArm	0	0	0	0	0	0	1
LeftForeArm	0	0	0	0	0	0	1
LeftHand	0	0	0	0	0	0	1
LeftHandThumb1	0	0	0	0	0	0	1
LeftHandThumb2	0	0	0	0	0	0	1
LeftHandThumb3	0	0	0	0	0	0	1
LeftHandThumb4	0	0	0	0	0	0	1
LeftHandIndex1	0	0	0	0	0	0	1
LeftHandIndex2	0	0	0	0	0	0	1
LeftHandIndex3	0	0	0	0	0	0	1
LeftHandIndex4	0	0	0	0	0	0	1
LeftHandMiddle1	0	0	0	0	0	0	1
LeftHandMiddle2	0	0	0	0	0	0	1
LeftHandMiddle3	0	0	0	0	0	0	1
LeftHandMiddle4	0	0	0	0	0	0	1
LeftHandRing1	0	0	0	0	0	0	1
LeftHandRing2	0	0	0	0	0	0	1
LeftHandRing3	0	0	0	0	0	0	1
LeftHandRing4	0	0	0	0	0	0	1
LeftHandPinky1	0	0	0	0	0	0	1
LeftHandPinky2	0	0	0	0	0	0	1
LeftHandPinky3	0	0	0	0	0	0	1
LeftHandPinky4	0	0	0	0	0	0	1
RightShoulder	0	0	0	0	0	0	1
RightArm	0	0	0	0	0	0	1
RightForeArm	0	0	0	0	0	0	1
RightHand	0	0	0	0	0	0	1
RightHandPinky1	0	0	0	0	0	0	1
RightHandPinky2	0	0	0	0	0	0	1
RightHandPinky3	0	0	0	0	0	0	1
RightHandPinky4	0	0	0	0	0	0	1
RightHandRing1	0	0	0	0	0	0	1
RightHandRing2	0	0	0	0	0	0	1
RightHandRing3	0	0	0	0	0	0	1
RightHandRing4	0	0	0	0	0	0	1
RightHandMiddle1	0	0	0	0	0	0	1
RightHandMiddle2	0	0	0	0	0	0	1
RightHandMiddle3	0	0	0	0	0	0	1
RightHandMiddle4	0	0	0	0	0	0	1
RightHandIndex1	0	0	0	0	0	0	1
RightHandIndex2	0	0	0	0	0	0	1
RightHandIndex3	0	0	0	0	0	0	1
RightHandIndex4	0	0	0	0	0	0	1
RightHandThumb1	0	0	0	0	0	0	1
RightHandThumb2	0	0	0	0	0	0	1
RightHandThumb3	0	0	0	0	0	0	1
RightHandThumb4	0	0	0	0	0	0	1
LeftUpLeg	0	0	0	0	0	0	1
LeftLeg	0	0	0	0	0	0	1
LeftFoot	0	0	0	0	0	0	1
LeftToeBase	0	0	0	0	0	0	1
RightUpLeg	0	0	0	0	0	0	1
RightLeg	0	0	0	0	0	0	1
RightFoot	0	0	0	0	0	0	1
RightToeBase	0	0	0	0	0	0	1
[Hips]
126	8.609048843	1016.824097	17.33665085	-0.8714262843	1.447244406	-5.554704666	1.0
127	8.487673759	1016.799866	17.14318466	-0.8831967115	1.453470945	-5.556065559	1.0
128	8.362504005	1016.775208	16.9502697	-0.8950463533	1.45996964	-5.557149887	1.0
129	8.234958649	1016.750122	16.75873566	-0.9069874287	1.466769218	-5.557982445	1.0
[Spine]
126	0	101.8159943	1.315000057	0.8283880949	-1.370342851	2.947651386	1.0
127	0	101.8159943	1.315000057	0.806429863	-1.371342897	2.942486048	1.0
128	0	101.8159943	1.315000057	0.7844840884	-1.372276306	2.937294006	1.0
129	0	101.8159943	1.315000057	0.7625719905	-1.37324357	2.932177782	1.0
[Spine1]
126	0	100.8349991	-10.00800037	0.00950812269	0.1109047383	5.933709621	1.0
127	0	100.8349991	-10.00800037	-0.02592193708	0.1077512875	5.934726715	1.0
128	0	100.8349991	-10.00800037	-0.06115316972	0.1046157554	5.935718536	1.0
129	0	100.8349991	-10.00800037	-0.0962074101	0.101478979	5.936645985	1.0
[Spine2]
126	0	91	-13.73399925	0.04026293382	0.7023273706	5.839398384	1.0
127	0	91	-13.73399925	0.004638465587	0.7028743029	5.839963913	1.0
128	0	91	-13.73399925	-0.03078658506	0.7034222484	5.840504646	1.0
129	0	91	-13.73399925	-0.0660341531	0.7039515376	5.840983868	1.0
[Neck]
126	0	166.7169952	-25.16200066	1.045794845	-0.257098496	-2.217351198	1.0
127	0	166.7169952	-25.16200066	1.042106509	-0.255816102	-2.219158411	1.0
128	0	166.7169952	-25.16200066	1.038273573	-0.2544975579	-2.220910311	1.0
129	0	166.7169952	-25.16200066	1.034343958	-0.2532688081	-2.2224648	1.0
[Head]
126	0	96.17900085	16.84999847	1.490222692	0.7116205096	-8.102192879	1.0
127	0	96.17900085	16.84999847	1.489804864	0.7185688615	-8.106732368	1.0
128	0	96.17900085	16.84999847	1.488983274	0.7256993651	-8.111207008	1.0
129	0	96.17900085	16.84999847	1.487832308	0.7324125171	-8.115178108	1.0
[LeftEye]
126	30.6760006	64.09500122	92.83599854	0	0	0	1.0
127	30.6760006	64.09500122	92.83599854	0	0	0	1.0
128	30.6760006	64.09500122	92.83599854	0	0	0	1.0
129	30.6760006	64.09500122	92.83599854	0	0	0	1.0
[RightEye]
126	-30.6760006	64.09500122	92.83499908	0	0	0	1.0
127	-30.6760006	64.09500122	92.83499908	0	0	0	1.0
128	-30.6760006	64.09500122	92.83499908	0	0	0	1.0
129	-30.6760006	64.09500122	92.83499908	0	0	0	1.0
[LeftShoulder]
126	45.70400238	109.4599991	-26.28000069	4.698689461	-13.61264706	0.6458527446	1.0
127	45.70400238	109.4599991	-26.28000069	4.684519291	-13.62032032	0.9978464246	1.0
128	45.70400238	109.4599991	-26.28000069	4.670306683	-13.62805748	1.348594427	1.0
129	45.70400238	109.4599991	-26.28000069	4.656058788	-13.6361208	1.697864175	1.0
[LeftArm]
126	105.923996	-5.24600029	-22.32099915	-3.074533463	4.555634975	-90.63882446	1.0
127	105.923996	-5.24600029	-22.32099915	-3.048812866	4.581498146	-91.00104523	1.0
128	105.923996	-5.24600029	-22.32099915	-3.022899389	4.607246876	-91.36199188	1.0
129	105.923996	-5.24600029	-22.32099915	-2.996858358	4.632741928	-91.7215271	1.0
[LeftForeArm]
126	278.414978	-0.0009999999311	0	7.747713425e-06	-14.5302515	-0.0002360330691	1.0
127	278.414978	-0.0009999999311	0	8.408834219e-06	-14.53534508	-0.0002396695345	1.0
128	278.414978	-0.0009999999311	0	8.946030903e-06	-14.54028988	-0.0002427046275	1.0
129	278.414978	-0.0009999999311	0	9.246665286e-06	-14.54497242	-0.0002447011357	1.0
[LeftHand]
126	283.2879944	0	0	-27.90143204	-0.9248485565	-9.961524963	1.0
127	283.2879944	0	0	-27.90603828	-0.9123173952	-9.950061798	1.0
128	283.2879944	0	0	-27.9098835	-0.8998476863	-9.938788414	1.0
129	283.2879944	0	0	-27.91248703	-0.8872653246	-9.927586555	1.0
[LeftHandThumb1]
126	24.6609993	-15.75	26.8239994	17.91585541	-4.20524025	9.979619026	1.0
127	24.6609993	-15.75	26.8239994	17.84013557	-4.397589684	9.840885162	1.0
128	24.6609993	-15.75	26.8239994	17.76485825	-4.589146137	9.702794075	1.0
129	24.6609993	-15.75	26.8239994	17.689991	-4.779864311	9.565353394	1.0
[LeftHandThumb2]
126	32.29800034	-18.64699936	18.64699936	-0.6016480923	32.34356308	-2.908384562	1.0
127	32.29800034	-18.64699936	18.64699936	-0.6965457201	32.10451889	-2.964847803	1.0
128	32.29800034	-18.64699936	18.64699936	-0.7909798622	31.86651421	-3.021027088	1.0
129	32.29800034	-18.64699936	18.64699936	-0.884955883	31.62958908	-3.076928854	1.0
[LeftHandThumb3]
126	26.52600098	-15.31499958	15.31499958	1.974053383	8.891776085	-0.1224123463	1.0
127	26.52600098	-15.31499958	15.31499958	1.909234643	8.652840614	-0.1814841032	1.0
128	26.52600098	-15.31499958	15.31499958	1.84474051	8.41493988	-0.240253821	1.0
129	26.52600098	-15.31499958	15.31499958	1.780563831	8.178112984	-0.2987304032	1.0
[LeftHandThumb4]
126	19.54599953	-11.28499985	11.28499985	0	0	0	1.0
127	19.54599953	-11.28499985	11.28499985	0	0	0	1.0
128	19.54599953	-11.28499985	11.28499985	0	0	0	1.0
129	19.54599953	-11.28499985	11.28499985	0	0	0	1.0
[LeftHandIndex1]
126	91.09299469	-5.170999527	22.60099792	-0.4075486958	4.791995049	-9.13220787	1.0
127	91.09299469	-5.170999527	22.60099792	-0.4047864377	4.788906097	-9.09912014	1.0
128	91.09299469	-5.170999527	22.60099792	-0.4020365477	4.785830021	-9.066177368	1.0
129	91.09299469	-5.170999527	22.60099792	-0.399299264	4.782767773	-9.033384323	1.0
[LeftHandIndex2]
126	36.76399994	0	0	-0.6916642785	2.884666204	-21.8584137	1.0
127	36.76399994	0	0	-0.6900029778	2.881747484	-21.82537651	1.0
128	36.76399994	0	0	-0.6883491278	2.8788414	-21.79248238	1.0
129	36.76399994	0	0	-0.6867028475	2.875948668	-21.75974083	1.0
[LeftHandIndex3]
126	28.83100128	0	0	-0.1339566112	0.9322497845	-11.45338631	1.0
127	28.83100128	0	0	-0.1332995296	0.9290002584	-11.42042065	1.0
128	28.83100128	0	0	-0.1326455772	0.9257647991	-11.38759995	1.0
129	28.83100128	0	0	-0.1319947243	0.9225440025	-11.35492706	1.0
[LeftHandIndex4]
126	23.92700005	0	0	0	0	0	1.0
127	23.92700005	0	0	0	0	0	1.0
128	23.92700005	0	0	0	0	0	1.0
129	23.92700005	0	0	0	0	0	1.0
[LeftHandMiddle1]
126	95.33399963	0	0	-1.67926836	8.769913673	-17.18045616	1.0
127	95.33399963	0	0	-1.675194263	8.767583847	-17.14706802	1.0
128	95.33399963	0	0	-1.671138048	8.765264511	-17.11382294	1.0
129	95.33399963	0	0	-1.66710031	8.762954712	-17.08073044	1.0
[LeftHandMiddle2]
126	36.98199844	0	0	-1.516467333	3.918212891	-34.70788193	1.0
127	36.98199844	0	0	-1.514139056	3.915800571	-34.67472076	1.0
128	36.98199844	0	0	-1.51182127	3.913398981	-34.64170456	1.0
129	36.98199844	0	0	-1.509514093	3.911007881	-34.60884094	1.0
[LeftHandMiddle3]
126	29.50900078	0	0	-0.1799726188	1.609523296	-13.54806137	1.0
127	29.50900078	0	0	-0.1791426092	1.606348634	-13.51508236	1.0
128	29.50900078	0	0	-0.1783164889	1.60318768	-13.4822464	1.0
129	29.50900078	0	0	-0.1774942726	1.600041151	-13.44955921	1.0
[LeftHandMiddle4]
126	28.3390007	0	0	0	0	0	1.0
127	28.3390007	0	0	0	0	0	1.0
128	28.3390007	0	0	0	0	0	1.0
129	28.3390007	0	0	0	0	0	1.0
[LeftHandRing1]
126	91.04499817	-0.4390000105	-18.65100098	-2.962472916	11.49965763	-26.50465584	1.0
127	91.04499817	-0.4390000105	-18.65100098	-2.928680658	11.48578835	-26.24886322	1.0
128	91.04499817	-0.4390000105	-18.65100098	-2.895044565	11.47195625	-25.99419212	1.0
129	91.04499817	-0.4390000105	-18.65100098	-2.861566305	11.45817471	-25.74067879	1.0
[LeftHandRing2]
126	31.54000092	0	0	-1.170941234	4.019849777	-39.7521019	1.0
127	31.54000092	0	0	-1.155717969	3.999977112	-39.49896622	1.0
128	31.54000092	0	0	-1.140573621	3.980181932	-39.24694443	1.0
129	31.54000092	0	0	-1.125505924	3.9604702	-38.99606323	1.0
[LeftHandRing3]
126	29.37700081	0	0	-0.08273637295	1.859852672	-18.89032555	1.0
127	29.37700081	0	0	-0.07707187533	1.835504293	-18.63914871	1.0
128	29.37700081	0	0	-0.07144720852	1.811258554	-18.3890686	1.0
129	29.37700081	0	0	-0.06585743278	1.787120819	-18.14012527	1.0
[LeftHandRing4]
126	26.47500038	0	0	0	0	0	1.0
127	26.47500038	0	0	0	0	0	1.0
128	26.47500038	0	0	0	0	0	1.0
129	26.47500038	0	0	0	0	0	1.0
[LeftHandPinky1]
126	80.77799988	-4.887000084	-38.06099701	-5.089920998	16.10256004	-36.43494797	1.0
127	80.77799988	-4.887000084	-38.06099701	-5.017168522	16.10036278	-36.1724472	1.0
128	80.77799988	-4.887000084	-38.06099701	-4.944739819	16.09815216	-35.91109848	1.0
129	80.77799988	-4.887000084	-38.06099701	-4.872642517	16.09593773	-35.65093231	1.0
[LeftHandPinky2]
126	36	0	0	-1.912601471	3.787224054	-45.21416092	1.0
127	36	0	0	-1.893838525	3.770471573	-44.96195602	1.0
128	36	0	0	-1.875167966	3.753780603	-44.71085358	1.0
129	36	0	0	-1.85658884	3.737157822	-44.46088791	1.0
[LeftHandPinky3]
126	21.14200211	0	0	-0.5250701904	2.792812109	-20.07961464	1.0
127	21.14200211	0	0	-0.5144898295	2.769958019	-19.82813835	1.0
128	21.14200211	0	0	-0.503970027	2.747197628	-19.57775879	1.0
129	21.14200211	0	0	-0.4935069382	2.72453618	-19.32851601	1.0
[LeftHandPinky4]
126	19.75699997	0	0	0	0	0	1.0
127	19.75699997	0	0	0	0	0	1.0
128	19.75699997	0	0	0	0	0	1.0
129	19.75699997	0	0	0	0	0	1.0
[RightShoulder]
126	-45.70000076	109.4620056	-26.28000069	5.858971119	2.802250624	-0.5296914577	1.0
127	-45.70000076	109.4620056	-26.28000069	5.909399986	2.806401491	-0.8477122188	1.0
128	-45.70000076	109.4620056	-26.28000069	5.959605217	2.810461521	-1.164354682	1.0
129	-45.70000076	109.4620056	-26.28000069	6.009629726	2.814157009	-1.479464054	1.0
[RightArm]
126	-105.9280014	-5.248000145	-22.32099915	0.5757051706	1.463051081	73.64358521	1.0
127	-105.9280014	-5.248000145	-22.32099915	0.6130183935	1.449633002	73.95944214	1.0
128	-105.9280014	-5.248000145	-22.32099915	0.6504455805	1.436172009	74.2740097	1.0
129	-105.9280014	-5.248000145	-22.32099915	0.6875608563	1.422560692	74.58725739	1.0
[RightForeArm]
126	-278.414978	0	0	-1.83077691e-06	17.65452766	-4.739467386e-06	1.0
127	-278.414978	0	0	-1.976168505e-06	17.65001678	9.934055925e-07	1.0
128	-278.414978	0	0	-2.049523573e-06	17.64554977	6.599047538e-06	1.0
129	-278.414978	0	0	-2.056928224e-06	17.64121437	1.14339955e-05	1.0
[RightHand]
126	-283.2879944	0	0.0009999999311	-12.52875328	-6.713650703	11.83484173	1.0
127	-283.2879944	0	0.0009999999311	-12.50145817	-6.707992077	11.82834435	1.0
128	-283.2879944	0	0.0009999999311	-12.47418976	-6.702582836	11.82194519	1.0
129	-283.2879944	0	0.0009999999311	-12.44804382	-6.697502613	11.81634617	1.0
[RightHandPinky1]
126	-80.76699829	-4.885000229	-38.06000137	-5.089830399	-16.10367966	36.43527985	1.0
127	-80.76699829	-4.885000229	-38.06000137	-5.017077923	-16.10148239	36.17277145	1.0
128	-80.76699829	-4.885000229	-38.06000137	-4.944648743	-16.09927368	35.91140747	1.0
129	-80.76699829	-4.885000229	-38.06000137	-4.872550964	-16.09706306	35.65123367	1.0
[RightHandPinky2]
126	-36	0	0.0009999999311	-1.911231756	-3.785532475	45.21412277	1.0
127	-36	0	0.0009999999311	-1.892476559	-3.768778563	44.96191406	1.0
128	-36	0	0.0009999999311	-1.873813868	-3.752085686	44.71081924	1.0
129	-36	0	0.0009999999311	-1.855242372	-3.735461235	44.46085739	1.0
[RightHandPinky3]
126	-21.14200211	0	0	-0.7460423708	0.09519615769	21.67720222	1.0
127	-21.14200211	0	0	-0.7348442078	0.1177432761	21.42625618	1.0
128	-21.14200211	0	0	-0.7237088084	0.1401989311	21.17640877	1.0
129	-21.14200211	0	0	-0.7126325965	0.1625570506	20.92769432	1.0
[RightHandPinky4]
126	-19.75699997	0	0	0	0	0	1.0
127	-19.75699997	0	0	0	0	0	1.0
128	-19.75699997	0	0	0	0	0	1.0
129	-19.75699997	0	0	0	0	0	1.0
[RightHandRing1]
126	-91.03599548	-0.4390000105	-18.65100098	-2.962397337	-11.4992981	26.50478363	1.0
127	-91.03599548	-0.4390000105	-18.65100098	-2.928606987	-11.48543072	26.2489872	1.0
128	-91.03599548	-0.4390000105	-18.65100098	-2.894972324	-11.47160149	25.99431419	1.0
129	-91.03599548	-0.4390000105	-18.65100098	-2.861495733	-11.4578228	25.74079895	1.0
[RightHandRing2]
126	-31.54000092	0	0	-1.170753002	-4.019338131	39.75213623	1.0
127	-31.54000092	0	0	-1.155532122	-3.999468565	39.49900436	1.0
128	-31.54000092	0	0	-1.140390277	-3.979676247	39.24698257	1.0
129	-31.54000092	0	0	-1.125324965	-3.959967852	38.99610138	1.0
[RightHandRing3]
126	-29.37700081	0	0	-0.129973188	0.1338127106	17.36800957	1.0
127	-29.37700081	0	0	-0.1249607578	0.1582996249	17.11702728	1.0
128	-29.37700081	0	0	-0.119985424	0.1826827675	16.86714554	1.0
129	-29.37700081	0	0	-0.1150421873	0.2069572359	16.61839676	1.0
[RightHandRing4]
126	-26.47500038	0	0	0	0	0	1.0
127	-26.47500038	0	0	0	0	0	1.0
128	-26.47500038	0	0	0	0	0	1.0
129	-26.47500038	0	0	0	0	0	1.0
[RightHandMiddle1]
126	-95.32500458	0	0	-1.679238319	-8.769675255	17.18056107	1.0
127	-95.32500458	0	0	-1.67516315	-8.767344475	17.14715767	1.0
128	-95.32500458	0	0	-1.671105981	-8.765023232	17.11390495	1.0
129	-95.32500458	0	0	-1.667067647	-8.762713432	17.08080101	1.0
[RightHandMiddle2]
126	-36.98199844	0	0	-1.516330361	-3.917761326	34.70795822	1.0
127	-36.98199844	0	0	-1.514002442	-3.91534996	34.67479706	1.0
128	-36.98199844	0	0	-1.511684895	-3.912948847	34.64178467	1.0
129	-36.98199844	0	0	-1.509377837	-3.910558462	34.60892105	1.0
[RightHandMiddle3]
126	-29.50900078	0	0	-0.2921994627	-1.799898982	17.18297768	1.0
127	-29.50900078	0	0	-0.2911706567	-1.796783686	17.14999008	1.0
128	-29.50900078	0	0	-0.2901466489	-1.793681979	17.11714745	1.0
129	-29.50900078	0	0	-0.2891274393	-1.790593982	17.08445358	1.0
[RightHandMiddle4]
126	-28.3390007	0	0.0009999999311	0	0	0	1.0
127	-28.3390007	0	0.0009999999311	0	0	0	1.0
128	-28.3390007	0	0.0009999999311	0	0	0	1.0
129	-28.3390007	0	0.0009999999311	0	0	0	1.0
[RightHandIndex1]
126	-91.08300018	-5.167999744	22.60099792	-0.4075470567	-4.791870594	9.132317543	1.0
127	-91.08300018	-5.167999744	22.60099792	-0.4047839642	-4.788780689	9.099223137	1.0
128	-91.08300018	-5.167999744	22.60099792	-0.4020332396	-4.785704613	9.066272736	1.0
129	-91.08300018	-5.167999744	22.60099792	-0.3992951214	-4.782642365	9.033473969	1.0
[RightHandIndex2]
126	-36.76399994	0	0	-0.6916055083	-2.884367704	21.85845947	1.0
127	-36.76399994	0	0	-0.6899446845	-2.88145113	21.82542992	1.0
128	-36.76399994	0	0	-0.6882913113	-2.878546953	21.79254341	1.0
129	-36.76399994	0	0	-0.6866455674	-2.875656128	21.75980568	1.0
[RightHandIndex3]
126	-28.83100128	0	0	-0.2707849443	-0.2823389173	15.12715912	1.0
127	-28.83100128	0	0	-0.2699210942	-0.2791391015	15.09420109	1.0
128	-28.83100128	0	0	-0.2690612972	-0.2759531736	15.06138802	1.0
129	-28.83100128	0	0	-0.2682056129	-0.2727816403	15.02872276	1.0
[RightHandIndex4]
126	-23.92700005	0	0	0	0	0	1.0
127	-23.92700005	0	0	0	0	0	1.0
128	-23.92700005	0	0	0	0	0	1.0
129	-23.92700005	0	0	0	0	0	1.0
[RightHandThumb1]
126	-24.64799881	-15.72700024	26.82600021	17.91553116	4.20544672	-9.979832649	1.0
127	-24.64799881	-15.72700024	26.82600021	17.83981133	4.397798538	-9.841107368	1.0
128	-24.64799881	-15.72700024	26.82600021	17.76453209	4.589357853	-9.703026772	1.0
129	-24.64799881	-15.72700024	26.82600021	17.68966484	4.780077934	-9.565595627	1.0
[RightHandThumb2]
126	-32.29800034	-18.64699936	18.64699936	-0.6023780704	-32.34222031	2.910128117	1.0
127	-32.29800034	-18.64699936	18.64699936	-0.6972694993	-32.10317612	2.966596842	1.0
128	-32.29800034	-18.64699936	18.64699936	-0.7916978598	-31.86517525	3.02278161	1.0
129	-32.29800034	-18.64699936	18.64699936	-0.8856683373	-31.62824821	3.078689098	1.0
[RightHandThumb3]
126	-26.52600098	-15.31399918	15.31399918	1.758713365	-8.036483765	0.9309782982	1.0
127	-26.52600098	-15.31399918	15.31399918	1.697446823	-7.796666622	0.9886063933	1.0
128	-26.52600098	-15.31399918	15.31399918	1.636487722	-7.557888508	1.045941114	1.0
129	-26.52600098	-15.31399918	15.31399918	1.575829148	-7.320187569	1.102990389	1.0
[RightHandThumb4]
126	-19.54599953	-11.28499985	11.28499985	0	0	0	1.0
127	-19.54599953	-11.28499985	11.28499985	0	0	0	1.0
128	-19.54599953	-11.28499985	11.28499985	0	0	0	1.0
129	-19.54599953	-11.28499985	11.28499985	0	0	0	1.0
[LeftUpLeg]
126	82.07800293	-67.51699829	-15.99599934	-17.64732552	15.13596153	11.9926815	1.0
127	82.07800293	-67.51699829	-15.99599934	-17.64526939	15.13824844	11.99885941	1.0
128	82.07800293	-67.51699829	-15.99599934	-17.6430397	15.14045429	12.00494957	1.0
129	82.07800293	-67.51699829	-15.99599934	-17.64078903	15.14261532	12.01094151	1.0
[LeftLeg]
126	0	-443.7049866	2.845999956	25.23725891	7.713383675	6.200152397	1.0
127	0	-443.7049866	2.845999956	25.22830772	7.711591721	6.200092316	1.0
128	0	-443.7049866	2.845999956	25.2190609	7.709807396	6.200004578	1.0
129	0	-443.7049866	2.845999956	25.20992661	7.708005428	6.199916363	1.0
[LeftFoot]
126	0	-444.2789917	-29.8219986	-4.304158211	2.761560678	-11.21832561	1.0
127	0	-444.2789917	-29.8219986	-4.297124386	2.755867958	-11.21622849	1.0
128	0	-444.2789917	-29.8219986	-4.289901257	2.749947786	-11.21395397	1.0
129	0	-444.2789917	-29.8219986	-4.282455444	2.743608236	-11.2115097	1.0
[LeftToeBase]
126	0	-87.28699493	107.1060028	-0.4915917516	3.93083883e-06	8.395683153e-07	1.0
127	0	-87.28699493	107.1060028	-0.494487524	1.277080969e-06	8.846805031e-07	1.0
128	0	-87.28699493	107.1060028	-0.4975547791	-1.175909006e-06	8.605158541e-07	1.0
129	0	-87.28699493	107.1060028	-0.50070858	-3.203426559e-06	7.105314239e-07	1.0
[RightUpLeg]
126	-82.07800293	-67.51699829	-15.99599934	-1.972102284	-4.542405128	10.94101715	1.0
127	-82.07800293	-67.51699829	-15.99599934	-1.984706521	-4.539067745	10.95291615	1.0
128	-82.07800293	-67.51699829	-15.99599934	-1.997300744	-4.535867214	10.96472645	1.0
129	-82.07800293	-67.51699829	-15.99599934	-2.009916306	-4.532878399	10.97635841	1.0
[RightLeg]
126	0	-443.7049866	2.861999989	11.32870865	-5.512272358	2.10990119	1.0
127	0	-443.7049866	2.861999989	11.3510313	-5.53029871	2.101006031	1.0
128	0	-443.7049866	2.861999989	11.3735323	-5.5483675	2.092157364	1.0
129	0	-443.7049866	2.861999989	11.39641476	-5.566437244	2.083389759	1.0
[RightFoot]
126	0	-444.2770081	-29.83799934	-9.695835114	-0.3166211545	-7.779028416	1.0
127	0	-444.2770081	-29.83799934	-9.697552681	-0.3172264993	-7.784180164	1.0
128	0	-444.2770081	-29.83799934	-9.699447632	-0.3178699613	-7.789577007	1.0
129	0	-444.2770081	-29.83799934	-9.701669693	-0.3185527027	-7.795142174	1.0
[RightToeBase]
126	0	-87.28699493	107.1060028	-0.6282923818	7.621405075e-06	6.74211492e-07	1.0
127	0	-87.28699493	107.1060028	-0.6274374127	8.673040611e-06	1.03728155e-06	1.0
128	0	-87.28699493	107.1060028	-0.6265090108	9.597791177e-06	1.331855856e-06	1.0
129	0	-87.28699493	107.1060028	-0.625718236	1.037944185e-05	1.51147583e-06	1.0
[EndOfFile]
